<svg xmlns="http://www.w3.org/2000/svg" viewBox="0 0 24 24" width="24" height="24">
  <!-- Monochrome activity-bar icon: solid tiles only -->
  <g transform="translate(1.2,4.2) scale(0.0435)">
    <rect x="87" y="150" width="11" height="11" fill="#C5C5C5"/>
    <rect x="100" y="150" width="11" height="11" fill="#C5C5C5"/>
    <rect x="112" y="150" width="11" height="11" fill="#C5C5C5"/>
    <rect x="124" y="150" width="11" height="11" fill="#C5C5C5"/>
    <rect x="212" y="150" width="11" height="11" fill="#C5C5C5"/>
    <rect x="224" y="150" width="11" height="11" fill="#C5C5C5"/>
    <rect x="237" y="150" width="11" height="11" fill="#C5C5C5"/>
    <rect x="250" y="150" width="11" height="11" fill="#C5C5C5"/>
    <rect x="337" y="150" width="11" height="11" fill="#C5C5C5"/>
    <rect x="350" y="150" width="11" height="11" fill="#C5C5C5"/>
    <rect x="374" y="150" width="11" height="11" fill="#C5C5C5"/>
    <rect x="87" y="162" width="11" height="11" fill="#C5C5C5"/>
    <rect x="100" y="162" width="11" height="11" fill="#C5C5C5"/>
    <rect x="112" y="162" width="11" height="11" fill="#C5C5C5"/>
    <rect x="124" y="162" width="11" height="11" fill="#C5C5C5"/>
    <rect x="212" y="162" width="11" height="11" fill="#C5C5C5"/>
    <rect x="224" y="162" width="11" height="11" fill="#C5C5C5"/>
    <rect x="237" y="162" width="11" height="11" fill="#C5C5C5"/>
    <rect x="250" y="162" width="11" height="11" fill="#C5C5C5"/>
    <rect x="337" y="162" width="11" height="11" fill="#C5C5C5"/>
    <rect x="362" y="162" width="11" height="11" fill="#C5C5C5"/>
    <rect x="374" y="162" width="11" height="11" fill="#C5C5C5"/>
    <rect x="400" y="162" width="11" height="11" fill="#C5C5C5"/>
    <rect x="100" y="175" width="11" height="11" fill="#C5C5C5"/>
    <rect x="112" y="175" width="11" height="11" fill="#C5C5C5"/>
    <rect x="124" y="175" width="11" height="11" fill="#C5C5C5"/>
    <rect x="212" y="175" width="11" height="11" fill="#C5C5C5"/>
    <rect x="224" y="175" width="11" height="11" fill="#C5C5C5"/>
    <rect x="237" y="175" width="11" height="11" fill="#C5C5C5"/>
    <rect x="250" y="175" width="11" height="11" fill="#C5C5C5"/>
    <rect x="337" y="175" width="11" height="11" fill="#C5C5C5"/>
    <rect x="350" y="175" width="11" height="11" fill="#C5C5C5"/>
    <rect x="387" y="175" width="11" height="11" fill="#C5C5C5"/>
    <rect x="437" y="175" width="11" height="11" fill="#C5C5C5"/>
    <rect x="100" y="188" width="11" height="11" fill="#C5C5C5"/>
    <rect x="112" y="188" width="11" height="11" fill="#C5C5C5"/>
    <rect x="124" y="188" width="11" height="11" fill="#C5C5C5"/>
    <rect x="137" y="188" width="11" height="11" fill="#C5C5C5"/>
    <rect x="200" y="188" width="11" height="11" fill="#C5C5C5"/>
    <rect x="212" y="188" width="11" height="11" fill="#C5C5C5"/>
    <rect x="224" y="188" width="11" height="11" fill="#C5C5C5"/>
    <rect x="237" y="188" width="11" height="11" fill="#C5C5C5"/>
    <rect x="250" y="188" width="11" height="11" fill="#C5C5C5"/>
    <rect x="262" y="188" width="11" height="11" fill="#C5C5C5"/>
    <rect x="324" y="188" width="11" height="11" fill="#C5C5C5"/>
    <rect x="337" y="188" width="11" height="11" fill="#C5C5C5"/>
    <rect x="362" y="188" width="11" height="11" fill="#C5C5C5"/>
    <rect x="400" y="188" width="11" height="11" fill="#C5C5C5"/>
    <rect x="100" y="200" width="11" height="11" fill="#C5C5C5"/>
    <rect x="112" y="200" width="11" height="11" fill="#C5C5C5"/>
    <rect x="124" y="200" width="11" height="11" fill="#C5C5C5"/>
    <rect x="137" y="200" width="11" height="11" fill="#C5C5C5"/>
    <rect x="200" y="200" width="11" height="11" fill="#C5C5C5"/>
    <rect x="212" y="200" width="11" height="11" fill="#C5C5C5"/>
    <rect x="224" y="200" width="11" height="11" fill="#C5C5C5"/>
    <rect x="237" y="200" width="11" height="11" fill="#C5C5C5"/>
    <rect x="250" y="200" width="11" height="11" fill="#C5C5C5"/>
    <rect x="262" y="200" width="11" height="11" fill="#C5C5C5"/>
    <rect x="324" y="200" width="11" height="11" fill="#C5C5C5"/>
    <rect x="337" y="200" width="11" height="11" fill="#C5C5C5"/>
    <rect x="350" y="200" width="11" height="11" fill="#C5C5C5"/>
    <rect x="374" y="200" width="11" height="11" fill="#C5C5C5"/>
    <rect x="412" y="200" width="11" height="11" fill="#C5C5C5"/>
    <rect x="112" y="212" width="11" height="11" fill="#C5C5C5"/>
    <rect x="124" y="212" width="11" height="11" fill="#C5C5C5"/>
    <rect x="137" y="212" width="11" height="11" fill="#C5C5C5"/>
    <rect x="200" y="212" width="11" height="11" fill="#C5C5C5"/>
    <rect x="212" y="212" width="11" height="11" fill="#C5C5C5"/>
    <rect x="224" y="212" width="11" height="11" fill="#C5C5C5"/>
    <rect x="237" y="212" width="11" height="11" fill="#C5C5C5"/>
    <rect x="250" y="212" width="11" height="11" fill="#C5C5C5"/>
    <rect x="262" y="212" width="11" height="11" fill="#C5C5C5"/>
    <rect x="324" y="212" width="11" height="11" fill="#C5C5C5"/>
    <rect x="350" y="212" width="11" height="11" fill="#C5C5C5"/>
    <rect x="362" y="212" width="11" height="11" fill="#C5C5C5"/>
    <rect x="387" y="212" width="11" height="11" fill="#C5C5C5"/>
    <rect x="112" y="225" width="11" height="11" fill="#C5C5C5"/>
    <rect x="124" y="225" width="11" height="11" fill="#C5C5C5"/>
    <rect x="137" y="225" width="11" height="11" fill="#C5C5C5"/>
    <rect x="150" y="225" width="11" height="11" fill="#C5C5C5"/>
    <rect x="187" y="225" width="11" height="11" fill="#C5C5C5"/>
    <rect x="200" y="225" width="11" height="11" fill="#C5C5C5"/>
    <rect x="212" y="225" width="11" height="11" fill="#C5C5C5"/>
    <rect x="250" y="225" width="11" height="11" fill="#C5C5C5"/>
    <rect x="262" y="225" width="11" height="11" fill="#C5C5C5"/>
    <rect x="274" y="225" width="11" height="11" fill="#C5C5C5"/>
    <rect x="312" y="225" width="11" height="11" fill="#C5C5C5"/>
    <rect x="337" y="225" width="11" height="11" fill="#C5C5C5"/>
    <rect x="374" y="225" width="11" height="11" fill="#C5C5C5"/>
    <rect x="437" y="225" width="11" height="11" fill="#C5C5C5"/>
    <rect x="112" y="238" width="11" height="11" fill="#C5C5C5"/>
    <rect x="124" y="238" width="11" height="11" fill="#C5C5C5"/>
    <rect x="137" y="238" width="11" height="11" fill="#C5C5C5"/>
    <rect x="150" y="238" width="11" height="11" fill="#C5C5C5"/>
    <rect x="187" y="238" width="11" height="11" fill="#C5C5C5"/>
    <rect x="200" y="238" width="11" height="11" fill="#C5C5C5"/>
    <rect x="212" y="238" width="11" height="11" fill="#C5C5C5"/>
    <rect x="250" y="238" width="11" height="11" fill="#C5C5C5"/>
    <rect x="262" y="238" width="11" height="11" fill="#C5C5C5"/>
    <rect x="274" y="238" width="11" height="11" fill="#C5C5C5"/>
    <rect x="312" y="238" width="11" height="11" fill="#C5C5C5"/>
    <rect x="324" y="238" width="11" height="11" fill="#C5C5C5"/>
    <rect x="350" y="238" width="11" height="11" fill="#C5C5C5"/>
    <rect x="412" y="238" width="11" height="11" fill="#C5C5C5"/>
    <rect x="124" y="250" width="11" height="11" fill="#C5C5C5"/>
    <rect x="137" y="250" width="11" height="11" fill="#C5C5C5"/>
    <rect x="150" y="250" width="11" height="11" fill="#C5C5C5"/>
    <rect x="187" y="250" width="11" height="11" fill="#C5C5C5"/>
    <rect x="200" y="250" width="11" height="11" fill="#C5C5C5"/>
    <rect x="212" y="250" width="11" height="11" fill="#C5C5C5"/>
    <rect x="250" y="250" width="11" height="11" fill="#C5C5C5"/>
    <rect x="262" y="250" width="11" height="11" fill="#C5C5C5"/>
    <rect x="274" y="250" width="11" height="11" fill="#C5C5C5"/>
    <rect x="312" y="250" width="11" height="11" fill="#C5C5C5"/>
    <rect x="324" y="250" width="11" height="11" fill="#C5C5C5"/>
    <rect x="337" y="250" width="11" height="11" fill="#C5C5C5"/>
    <rect x="362" y="250" width="11" height="11" fill="#C5C5C5"/>
    <rect x="400" y="250" width="11" height="11" fill="#C5C5C5"/>
    <rect x="124" y="262" width="11" height="11" fill="#C5C5C5"/>
    <rect x="137" y="262" width="11" height="11" fill="#C5C5C5"/>
    <rect x="150" y="262" width="11" height="11" fill="#C5C5C5"/>
    <rect x="187" y="262" width="11" height="11" fill="#C5C5C5"/>
    <rect x="200" y="262" width="11" height="11" fill="#C5C5C5"/>
    <rect x="212" y="262" width="11" height="11" fill="#C5C5C5"/>
    <rect x="250" y="262" width="11" height="11" fill="#C5C5C5"/>
    <rect x="262" y="262" width="11" height="11" fill="#C5C5C5"/>
    <rect x="274" y="262" width="11" height="11" fill="#C5C5C5"/>
    <rect x="312" y="262" width="11" height="11" fill="#C5C5C5"/>
    <rect x="337" y="262" width="11" height="11" fill="#C5C5C5"/>
    <rect x="387" y="262" width="11" height="11" fill="#C5C5C5"/>
    <rect x="424" y="262" width="11" height="11" fill="#C5C5C5"/>
    <rect x="124" y="275" width="11" height="11" fill="#C5C5C5"/>
    <rect x="137" y="275" width="11" height="11" fill="#C5C5C5"/>
    <rect x="150" y="275" width="11" height="11" fill="#C5C5C5"/>
    <rect x="174" y="275" width="11" height="11" fill="#C5C5C5"/>
    <rect x="187" y="275" width="11" height="11" fill="#C5C5C5"/>
    <rect x="200" y="275" width="11" height="11" fill="#C5C5C5"/>
    <rect x="262" y="275" width="11" height="11" fill="#C5C5C5"/>
    <rect x="274" y="275" width="11" height="11" fill="#C5C5C5"/>
    <rect x="300" y="275" width="11" height="11" fill="#C5C5C5"/>
    <rect x="312" y="275" width="11" height="11" fill="#C5C5C5"/>
    <rect x="324" y="275" width="11" height="11" fill="#C5C5C5"/>
    <rect x="350" y="275" width="11" height="11" fill="#C5C5C5"/>
    <rect x="374" y="275" width="11" height="11" fill="#C5C5C5"/>
    <rect x="400" y="275" width="11" height="11" fill="#C5C5C5"/>
    <rect x="137" y="288" width="11" height="11" fill="#C5C5C5"/>
    <rect x="150" y="288" width="11" height="11" fill="#C5C5C5"/>
    <rect x="162" y="288" width="11" height="11" fill="#C5C5C5"/>
    <rect x="174" y="288" width="11" height="11" fill="#C5C5C5"/>
    <rect x="187" y="288" width="11" height="11" fill="#C5C5C5"/>
    <rect x="200" y="288" width="11" height="11" fill="#C5C5C5"/>
    <rect x="262" y="288" width="11" height="11" fill="#C5C5C5"/>
    <rect x="274" y="288" width="11" height="11" fill="#C5C5C5"/>
    <rect x="287" y="288" width="11" height="11" fill="#C5C5C5"/>
    <rect x="300" y="288" width="11" height="11" fill="#C5C5C5"/>
    <rect x="312" y="288" width="11" height="11" fill="#C5C5C5"/>
    <rect x="337" y="288" width="11" height="11" fill="#C5C5C5"/>
    <rect x="362" y="288" width="11" height="11" fill="#C5C5C5"/>
    <rect x="137" y="300" width="11" height="11" fill="#C5C5C5"/>
    <rect x="150" y="300" width="11" height="11" fill="#C5C5C5"/>
    <rect x="162" y="300" width="11" height="11" fill="#C5C5C5"/>
    <rect x="174" y="300" width="11" height="11" fill="#C5C5C5"/>
    <rect x="187" y="300" width="11" height="11" fill="#C5C5C5"/>
    <rect x="200" y="300" width="11" height="11" fill="#C5C5C5"/>
    <rect x="262" y="300" width="11" height="11" fill="#C5C5C5"/>
    <rect x="274" y="300" width="11" height="11" fill="#C5C5C5"/>
    <rect x="287" y="300" width="11" height="11" fill="#C5C5C5"/>
    <rect x="312" y="300" width="11" height="11" fill="#C5C5C5"/>
    <rect x="324" y="300" width="11" height="11" fill="#C5C5C5"/>
    <rect x="350" y="300" width="11" height="11" fill="#C5C5C5"/>
    <rect x="400" y="300" width="11" height="11" fill="#C5C5C5"/>
    <rect x="137" y="312" width="11" height="11" fill="#C5C5C5"/>
    <rect x="150" y="312" width="11" height="11" fill="#C5C5C5"/>
    <rect x="162" y="312" width="11" height="11" fill="#C5C5C5"/>
    <rect x="174" y="312" width="11" height="11" fill="#C5C5C5"/>
    <rect x="187" y="312" width="11" height="11" fill="#C5C5C5"/>
    <rect x="200" y="312" width="11" height="11" fill="#C5C5C5"/>
    <rect x="262" y="312" width="11" height="11" fill="#C5C5C5"/>
    <rect x="274" y="312" width="11" height="11" fill="#C5C5C5"/>
    <rect x="287" y="312" width="11" height="11" fill="#C5C5C5"/>
    <rect x="300" y="312" width="11" height="11" fill="#C5C5C5"/>
    <rect x="324" y="312" width="11" height="11" fill="#C5C5C5"/>
    <rect x="374" y="312" width="11" height="11" fill="#C5C5C5"/>
    <rect x="150" y="325" width="11" height="11" fill="#C5C5C5"/>
    <rect x="162" y="325" width="11" height="11" fill="#C5C5C5"/>
    <rect x="174" y="325" width="11" height="11" fill="#C5C5C5"/>
    <rect x="187" y="325" width="11" height="11" fill="#C5C5C5"/>
    <rect x="274" y="325" width="11" height="11" fill="#C5C5C5"/>
    <rect x="287" y="325" width="11" height="11" fill="#C5C5C5"/>
    <rect x="300" y="325" width="11" height="11" fill="#C5C5C5"/>
    <rect x="312" y="325" width="11" height="11" fill="#C5C5C5"/>
    <rect x="337" y="325" width="11" height="11" fill="#C5C5C5"/>
    <rect x="150" y="338" width="11" height="11" fill="#C5C5C5"/>
    <rect x="162" y="338" width="11" height="11" fill="#C5C5C5"/>
    <rect x="174" y="338" width="11" height="11" fill="#C5C5C5"/>
    <rect x="187" y="338" width="11" height="11" fill="#C5C5C5"/>
    <rect x="274" y="338" width="11" height="11" fill="#C5C5C5"/>
    <rect x="287" y="338" width="11" height="11" fill="#C5C5C5"/>
    <rect x="300" y="338" width="11" height="11" fill="#C5C5C5"/>
    <rect x="312" y="338" width="11" height="11" fill="#C5C5C5"/>
    <rect x="350" y="338" width="11" height="11" fill="#C5C5C5"/>
  </g>
</svg>
